<?xml version="1.0" encoding="UTF-8" standalone="no"?>
<!DOCTYPE svg PUBLIC "-//W3C//DTD SVG 1.1//EN" "http://www.w3.org/Graphics/SVG/1.1/DTD/svg11.dtd">
<svg
    width="100%"
    height="100%"
    viewBox="0 0 150 150"
    version="1.1"
    xmlns="http://www.w3.org/2000/svg"
    xmlns:xlink="http://www.w3.org/1999/xlink"
    xml:space="preserve"
    xmlns:serif="http://www.serif.com/"
    style="fill-rule:evenodd;clip-rule:evenodd;stroke-linejoin:round;stroke-miterlimit:2;"
>
    <g id="d6">
        <path
            d="M150,6l0,138c0,3.311 -2.689,6 -6,6l-138,0c-3.311,0 -6,-2.689 -6,-6l0,-138c0,-3.311 2.689,-6 6,-6l138,0c3.311,0 6,2.689 6,6Z"
            style="fill:#13b9a4;"
        />
        <path
            d="M150,6l0,138c0,3.311 -2.689,6 -6,6l-138,0c-3.311,0 -6,-2.689 -6,-6l0,-138c0,-3.311 2.689,-6 6,-6l138,0c3.311,0 6,2.689 6,6Zm-4.167,-0c0,-1.012 -0.821,-1.833 -1.833,-1.833l-138,-0c-1.012,-0 -1.833,0.821 -1.833,1.833l-0,138c-0,1.012 0.821,1.833 1.833,1.833l138,0c1.012,0 1.833,-0.821 1.833,-1.833l0,-138Z"
        />
    </g>
    <g id="crit">
        <path
            id="fill"
            d="M46.657,77.61l-2.865,-30.556c-0.025,-0.261 0,-0.525 0.074,-0.777l7.914,-27.21c0.175,-0.601 0.61,-1.091 1.185,-1.335c0.575,-0.245 1.23,-0.219 1.783,0.071l36.089,18.918c0.449,0.235 0.796,0.625 0.978,1.098l7.042,18.337c0.067,0.173 0.11,0.354 0.128,0.539l7.364,73.449c0.087,0.867 -0.375,1.696 -1.158,2.079c-0.783,0.383 -1.722,0.238 -2.352,-0.363l-55.545,-52.936c-0.364,-0.347 -0.59,-0.813 -0.637,-1.314Z"
            style="fill-opacity:0.2;"
        />
        <path
            id="outline"
            d="M46.655,77.585c-0,0 -2.863,-30.53 -2.863,-30.531c-0.024,-0.261 0,-0.525 0.074,-0.777c0,-0.001 7.915,-27.21 7.915,-27.21c0.162,-0.558 0.552,-1.032 1.093,-1.294c0.03,-0.015 0.06,-0.028 0.091,-0.041c0.584,-0.249 1.238,-0.214 1.783,0.071c0.001,0.001 36.089,18.918 36.089,18.918c0.449,0.235 0.796,0.625 0.978,1.098l7.042,18.337c0.066,0.172 0.11,0.353 0.128,0.539l7.364,73.449c0.078,0.785 -0.295,1.561 -0.985,1.984c-0.056,0.035 -0.114,0.066 -0.173,0.095c-0.787,0.385 -1.727,0.233 -2.353,-0.363l-55.544,-52.936c-0.358,-0.341 -0.589,-0.804 -0.637,-1.314c-0.001,-0.008 -0.001,-0.017 -0.002,-0.025Zm7.612,-52.148l-6.084,20.916l20.601,23.805l0.289,-14.111l-14.806,-30.61Zm39.552,29.222l-5.612,-14.613c-0,0 -21.394,-11.214 -29.801,-15.621l14.099,29.147l21.314,1.087Zm7.475,66.835l-6.276,-62.602l-21.813,-1.112l-0.355,17.272l28.444,46.442Zm-47.76,-42.379l40.64,38.731l-24.526,-40.045l-16.114,1.314Zm-4.986,-25.973l2.066,22.03l15.878,-1.295l-17.944,-20.735Z"
            style="fill-opacity:0.2;"
        />
    </g>
    <g id="two-pips" serif:id="two pips">
        <g id="one-pip" serif:id="one pip">
            <circle
                id="fill1"
                serif:id="fill"
                cx="105"
                cy="48.75"
                r="22.5"
                style="fill-opacity:0.2;"
            />
            <path
                d="M105,26.25c12.418,0 22.5,10.082 22.5,22.5c0,12.418 -10.082,22.5 -22.5,22.5c-12.418,0 -22.5,-10.082 -22.5,-22.5c0,-12.418 10.082,-22.5 22.5,-22.5Zm0,6.25c-8.969,0 -16.25,7.281 -16.25,16.25c0,8.969 7.281,16.25 16.25,16.25c8.969,0 16.25,-7.281 16.25,-16.25c0,-8.969 -7.281,-16.25 -16.25,-16.25Z"
                style="fill-opacity:0.2;"
            />
        </g>
        <g id="one-pip1" serif:id="one pip">
            <circle
                id="fill2"
                serif:id="fill"
                cx="45"
                cy="101.25"
                r="22.5"
                style="fill-opacity:0.2;"
            />
            <path
                d="M45,78.75c12.418,-0 22.5,10.082 22.5,22.5c0,12.418 -10.082,22.5 -22.5,22.5c-12.418,0 -22.5,-10.082 -22.5,-22.5c0,-12.418 10.082,-22.5 22.5,-22.5Zm0,6.25c-8.969,-0 -16.25,7.281 -16.25,16.25c0,8.969 7.281,16.25 16.25,16.25c8.969,0 16.25,-7.281 16.25,-16.25c0,-8.969 -7.281,-16.25 -16.25,-16.25Z"
                style="fill-opacity:0.2;"
            />
        </g>
    </g>
    <g id="one-pip2" serif:id="one pip">
        <circle
            id="fill3"
            serif:id="fill"
            cx="75"
            cy="75"
            r="22.5"
            style="fill-opacity:0.2;"
        />
        <path
            d="M75,52.5c12.418,-0 22.5,10.082 22.5,22.5c0,12.418 -10.082,22.5 -22.5,22.5c-12.418,0 -22.5,-10.082 -22.5,-22.5c-0,-12.418 10.082,-22.5 22.5,-22.5Zm-0,6.25c-8.969,-0 -16.25,7.281 -16.25,16.25c0,8.969 7.281,16.25 16.25,16.25c8.969,0 16.25,-7.281 16.25,-16.25c-0,-8.969 -7.281,-16.25 -16.25,-16.25Z"
            style="fill-opacity:0.2;"
        />
    </g>
</svg>