<?xml version="1.0" encoding="UTF-8" standalone="no"?><!DOCTYPE svg PUBLIC "-//W3C//DTD SVG 1.1//EN" "http://www.w3.org/Graphics/SVG/1.1/DTD/svg11.dtd"><svg width="100%" height="100%" viewBox="0 0 162 34" version="1.1" xmlns="http://www.w3.org/2000/svg" xmlns:xlink="http://www.w3.org/1999/xlink" xml:space="preserve" xmlns:serif="http://www.serif.com/" style="fill-rule:evenodd;clip-rule:evenodd;stroke-linejoin:round;stroke-miterlimit:2;"><g id="Proto-Logo-Shapes" serif:id="Proto Logo Shapes"><path d="M1,32.079l0,-30.503l14.388,-0c0,-0 13.238,0.052 13.238,11.223c-0,11.17 -11.511,11.223 -11.511,11.223l-7.482,-0l0,8.057l-8.633,0Zm8.633,-23.597l0,9.209l5.755,-0c0,-0 4.607,-0.55 4.607,-4.607c0,-4.058 -4.031,-4.602 -4.031,-4.602l-6.331,0Z" style="fill:#4e4780;stroke:#fff;stroke-opacity:0.7;stroke-width:2px;"/><path d="M32.655,32.079l-0,-30.503l13.813,-0c-0,-0 13.813,-0.341 13.813,11.51c-0,6.775 -6.331,9.785 -6.331,9.785l6.331,9.208l-8.634,0l-5.179,-8.057l-5.18,-0l-0,8.057l-8.633,0Zm8.633,-23.597l-0,9.209l6.331,-0c-0,-0 4.028,0.11 4.028,-4.605c0,-4.714 -4.028,-4.604 -4.028,-4.604l-6.331,0Z" style="fill:#4e4780;stroke:#fff;stroke-opacity:0.7;stroke-width:2px;"/><path d="M78.122,32.655l0,-10.36c0,-0 -2.028,-0.477 -2.028,-3.453c-0,-2.976 2.46,-4.029 4.33,-4.029c1.871,-0 4.029,1.552 4.029,4.029c0,2.477 -2.302,3.453 -2.302,3.453l0,10.36l-4.029,-0Zm0.288,-13.526c0,1.168 0.638,1.73 1.863,1.727c1.386,-0.005 1.729,-0.786 1.732,-1.863c0.002,-1.415 -1.084,-1.593 -1.732,-1.59c-0.669,0.002 -1.863,0.146 -1.863,1.726Zm-4.316,12.375c-0,-0 -10.36,-1.456 -10.36,-14.677c-0,-13.22 11.419,-15.827 16.69,-15.827c5.271,-0 16.691,3.173 16.691,15.827c0,12.655 -10.935,15.252 -10.935,15.252l-0,-9.208c-0,-0 2.302,-2.024 2.302,-6.044c0,-3.079 -2.528,-8.921 -8.058,-8.921c-6.076,0 -8.345,6.447 -8.345,8.921c0,3.132 2.015,6.044 2.015,6.044l-0,8.633Z" style="fill:#4e4780;stroke:#fff;stroke-opacity:0.7;stroke-width:2px;"/><path d="M108.05,32.079l0,-23.597l-9.208,0l-0,-6.906l27.05,-0l0,6.906l-9.209,0l0,23.597l-8.633,0Z" style="fill:#4e4780;stroke:#fff;stroke-opacity:0.7;stroke-width:2px;"/><path d="M127.043,17.115c0,-7.355 5.271,-16.115 16.979,-16.115c11.707,0 16.978,8.791 16.978,16.115c0,7.324 -4.508,15.54 -16.978,15.54c-12.47,-0 -16.979,-8.185 -16.979,-15.54Zm8.633,0c0,3.943 3.039,8.633 8.346,8.633c5.307,0 8.345,-4.549 8.345,-8.633c-0,-4.084 -2.823,-8.921 -8.345,-8.921c-5.523,0 -8.346,4.979 -8.346,8.921Z" style="fill:#4e4780;stroke:#fff;stroke-opacity:0.7;stroke-width:2px;"/></g></svg>